<?xml version="1.0" standalone="no"?>
<!DOCTYPE svg PUBLIC "-//W3C//DTD SVG 1.1//EN" "http://www.w3.org/Graphics/SVG/1.1/DTD/svg11.dtd" >
<svg xmlns="http://www.w3.org/2000/svg" xmlns:xlink="http://www.w3.org/1999/xlink" version="1.1">
<metadata></metadata>
<defs>
<font id="cedra_4fwide" horiz-adv-x="1286" >
<font-face units-per-em="2048" ascent="1524" descent="-524" />
<missing-glyph horiz-adv-x="573" />
<glyph horiz-adv-x="0" />
<glyph horiz-adv-x="682" />
<glyph unicode=" "  horiz-adv-x="573" />
<glyph unicode="&#x09;" horiz-adv-x="573" />
<glyph unicode="&#xa0;" horiz-adv-x="573" />
<glyph unicode="!" horiz-adv-x="446" d="M94 102q0 56 37 92.5t92 36.5t92 -36.5t37 -92.5t-37 -92.5t-92 -36.5t-92 36.5t-37 92.5zM133 1266h180l-39 -912h-102z" />
<glyph unicode="&#x22;" horiz-adv-x="602" d="M84 1278h156l-13 -416h-131zM342 1278h156l-13 -416h-131z" />
<glyph unicode="#" horiz-adv-x="1144" d="M100 563v123h234l18 172h-227v123h242l26 248h131l-26 -248h164l26 248h131l-26 -248h249v-123h-264l-18 -172h258v-123h-270l-27 -252h-131l26 252h-163l-27 -252h-131l27 252h-222zM465 686h164l18 172h-164z" />
<glyph unicode="$" horiz-adv-x="1335" d="M68 84l36 149q230 -93 476 -104v412q-77 12 -134 24t-120 31t-106 44.5t-79.5 60.5t-54.5 83t-18 107q0 88 41.5 155.5t114 109.5t161.5 65.5t195 29.5v224h131v-224q247 -12 463 -106l-50 -150q-193 85 -413 97v-412q96 -16 166 -33t139.5 -45t113 -63t70.5 -86.5 t27 -116.5q0 -70 -29 -127.5t-78 -97t-116 -68t-140 -43.5t-153 -20v-226h-131v223q-285 10 -512 107zM240 895q0 -29 10.5 -53t26 -41t43 -32t53 -24t65 -18.5t68.5 -14.5t74 -12v392q-97 -5 -170 -25.5t-121.5 -64t-48.5 -107.5zM711 131q98 5 172.5 26t123 65t48.5 106 q0 31 -11 56t-35.5 43.5t-51.5 31.5t-71 25t-80.5 19t-94.5 17v-389z" />
<glyph unicode="%" horiz-adv-x="1519" d="M90 934q0 160 85 239.5t222 79.5q138 0 224 -80t86 -239t-86.5 -239.5t-223.5 -80.5t-222 80t-85 240zM209 31l1057 1257l100 -90l-1057 -1257zM221 934q0 -111 48.5 -165t127.5 -54q78 0 128 54t50 165t-49.5 165t-128.5 54q-78 0 -127 -54t-49 -165zM854 295 q0 160 85 239.5t222 79.5t223 -80t86 -239t-86 -239.5t-223 -80.5t-222 80t-85 240zM985 295q0 -111 48.5 -165t127.5 -54q78 0 128 54t50 165t-50 165t-128 54q-79 0 -127.5 -54t-48.5 -165z" />
<glyph unicode="&#x26;" horiz-adv-x="1320" d="M63 319q0 66 27 123.5t78 103t108 80t132 68.5l-68 62q-29 27 -47.5 48t-37.5 66.5t-19 98.5q0 135 104 209.5t266 74.5q145 0 234.5 -65t89.5 -197q0 -78 -35.5 -146t-83.5 -110.5t-115 -83.5l318 -278q24 73 24 159h172q0 -153 -63 -276l170 -147l-109 -119l-157 139 q-157 -154 -445 -154q-102 0 -195.5 20t-173 60t-127 108t-47.5 156zM236 315q0 -50 33 -87.5t87.5 -59t116 -31.5t127.5 -10q210 0 328 111l-385 337l-45 -18q-78 -33 -131 -65t-92 -78.5t-39 -98.5zM408 963q0 -57 41 -93l118 -106q80 39 135.5 96t55.5 129 q0 113 -156 113q-87 0 -140.5 -35t-53.5 -104z" />
<glyph unicode="'" horiz-adv-x="311" d="M84 1278h156l-13 -416h-131z" />
<glyph unicode="(" horiz-adv-x="634" d="M96 614q0 173 29.5 330t84.5 282t143.5 199t197.5 74v-151q-73 0 -132 -62.5t-95.5 -167t-56 -234.5t-19.5 -270t19.5 -269.5t56 -234t95.5 -167t132 -62.5v-151q-109 0 -197.5 74t-143.5 198.5t-84.5 281.5t-29.5 330z" />
<glyph unicode=")" horiz-adv-x="634" d="M104 -119q73 0 132 62.5t96 167t56.5 234t19.5 269.5t-19.5 270t-56.5 234.5t-96 167t-132 62.5v151q109 0 197.5 -74t143.5 -199t84.5 -282t29.5 -330t-29.5 -330t-84.5 -281.5t-143.5 -198.5t-197.5 -74v151z" />
<glyph unicode="*" horiz-adv-x="1159" d="M152 1073l32 117l334 -107v351h121v-351l336 107l33 -117l-334 -106l211 -281l-101 -78l-206 287l-220 -277l-96 78l215 271z" />
<glyph unicode="+" horiz-adv-x="1208" d="M145 539v151h371v381h172v-381h375v-151h-375v-383h-172v383h-371z" />
<glyph unicode="," horiz-adv-x="389" d="M70 102q0 56 37 92.5t92 36.5q56 0 92.5 -37t36.5 -112q0 -147 -154 -393l-70 35q53 93 107 249h-23q-44 0 -81 37.5t-37 91.5z" />
<glyph unicode="-" horiz-adv-x="958" d="M143 549v131h672v-131h-672z" />
<glyph unicode="." horiz-adv-x="385" d="M63 102q0 55 37 92t93 37q55 0 92 -36.5t37 -92.5t-37 -92.5t-92 -36.5q-56 0 -93 37t-37 92z" />
<glyph unicode="/" horiz-adv-x="874" d="M0 -135l727 1558l147 -59l-727 -1559z" />
<glyph unicode="0" horiz-adv-x="1433" d="M100 614q0 165 47.5 290t132.5 200t195 112t242 37t241.5 -37t194.5 -112t132.5 -200t47.5 -290t-47.5 -290t-132.5 -200t-194.5 -112t-241.5 -37t-242 37t-195 112t-132.5 200t-47.5 290zM272 614q0 -125 34.5 -218.5t96 -149.5t140.5 -83.5t174 -27.5t173.5 27.5 t140 83.5t96 149.5t34.5 218.5t-34.5 219t-96 150t-140 83.5t-173.5 27.5t-174 -27.5t-140.5 -83.5t-96 -150t-34.5 -219z" />
<glyph unicode="1" horiz-adv-x="724" d="M68 0v152h217v919l-217 -43v125l389 76v-1077h200v-152h-589z" />
<glyph unicode="2" d="M84 152q67 25 136 53.5t165 74t180 92.5t170.5 108t147.5 122.5t100 134t39 142.5q0 110 -92 162.5t-279 52.5q-251 0 -469 -99l-49 146q243 112 516 112q256 0 400.5 -90.5t144.5 -269.5q0 -65 -21 -129t-54 -117t-86.5 -107t-103.5 -95t-120.5 -85.5t-123.5 -73.5 t-126.5 -64t-114.5 -53t-102 -44l154 35h723v-160h-1098z" />
<glyph unicode="3" horiz-adv-x="1202" d="M20 88l46 145q102 -46 233.5 -72t255.5 -26q77 0 146 12t132 38t100.5 75.5t37.5 116.5q0 68 -37.5 118t-100.5 76.5t-132 39t-146 12.5h-133v151l383 295h-731v160h979v-142l-381 -317q96 -6 178 -32t149 -71.5t105.5 -119.5t38.5 -168q0 -87 -33.5 -157t-89.5 -115.5 t-133 -75.5t-158.5 -43t-171.5 -13q-136 0 -278.5 29.5t-258.5 83.5z" />
<glyph unicode="4" horiz-adv-x="1361" d="M51 289v104l635 836h188l-598 -780h695v524h172v-524h196v-160h-196v-289h-172v289h-920z" />
<glyph unicode="5" horiz-adv-x="1325" d="M113 88l45 145q105 -47 241 -72.5t256 -25.5q65 0 122.5 8t114 28t97 51t65.5 81t25 113q0 59 -22.5 106t-59 76t-87 48t-102.5 26.5t-110 7.5q-261 0 -366 -141h-172l55 690h987v-160h-823l-33 -344q151 109 369 115q75 2 146.5 -9t143.5 -41t125.5 -76.5t87 -123.5 t33.5 -174q0 -82 -23 -149.5t-65 -114.5t-96.5 -82t-121.5 -55.5t-135.5 -30t-143.5 -9.5q-137 0 -285 30t-268 83z" />
<glyph unicode="6" horiz-adv-x="1392" d="M102 614q0 167 46 290.5t133.5 199.5t207.5 112.5t275 36.5q242 0 455 -71l-41 -146q-195 58 -404 58q-225 0 -348.5 -94t-146.5 -293q215 118 462 118q82 0 160 -13t154 -44.5t133 -79t92 -121.5t35 -166q0 -95 -36 -170t-94 -122t-137 -78t-159 -43.5t-166 -12.5 q-140 0 -251.5 37t-195.5 112t-129 199.5t-45 290.5zM276 547q17 -212 134 -312t315 -100q58 0 113 7.5t111.5 27t98.5 48.5t68.5 76t26.5 107q0 71 -36.5 124.5t-98 83t-131 43.5t-146.5 14q-237 0 -455 -119z" />
<glyph unicode="7" horiz-adv-x="1216" d="M86 1069v160h1077v-142l-635 -1087h-196l631 1069h-877z" />
<glyph unicode="8" horiz-adv-x="1310" d="M66 334q0 108 59.5 183.5t167.5 135.5q-166 86 -166 265q0 92 41.5 159t114.5 104.5t160.5 54.5t191.5 17q111 0 206 -19t172.5 -58.5t122 -107t44.5 -157.5q0 -176 -170 -295q117 -45 178 -114t61 -174q0 -79 -35.5 -141t-92.5 -101t-135 -64.5t-156.5 -36t-163.5 -10.5 q-90 0 -173.5 11.5t-162 39t-136.5 68t-93 102t-35 138.5zM238 340q0 -57 38 -99t102.5 -64t135 -32t150.5 -10q76 0 143.5 8.5t131 28.5t101 59.5t37.5 94.5q0 35 -15 63t-43 49t-64 37.5t-82.5 29t-93 23t-101.5 21.5q-9 2 -14 3t-13 2.5t-14 2.5q-103 17 -172 35 q-227 -102 -227 -252zM299 920q0 -33 11 -59.5t33.5 -45.5t51 -33.5t68 -26t79 -20.5t89.5 -19q4 -1 6 -1l201 -43q170 93 170 233q0 52 -29 90t-81.5 59t-115.5 30.5t-141 9.5q-342 0 -342 -174z" />
<glyph unicode="9" horiz-adv-x="1392" d="M78 827q0 95 36 170t94 122t137 78t159 43.5t166 12.5q141 0 253 -36.5t195 -112.5t127.5 -200t44.5 -290q0 -167 -45.5 -290.5t-133 -199.5t-207.5 -112.5t-275 -36.5q-239 0 -455 72l37 141q198 -53 405 -53q219 0 345.5 89.5t150.5 295.5q-213 -117 -461 -117 q-82 0 -160 13t-154 44.5t-132.5 79t-91.5 121.5t-35 166zM250 827q0 -71 36.5 -124.5t98 -82.5t131 -43t146.5 -14q234 0 454 117q-17 213 -133.5 313.5t-314.5 100.5q-73 0 -142 -14t-133.5 -43t-103.5 -83.5t-39 -126.5z" />
<glyph unicode=":" horiz-adv-x="434" d="M88 123q0 55 37 92t92 37t92 -37t37 -92t-37 -92t-92 -37t-92 37t-37 92zM88 688q0 56 37 92.5t92 36.5t92 -36.5t37 -92.5t-37 -92.5t-92 -36.5t-92 36.5t-37 92.5z" />
<glyph unicode=";" horiz-adv-x="438" d="M82 688q0 56 37 92.5t92 36.5t92 -36.5t37 -92.5t-37 -92.5t-92 -36.5t-92 36.5t-37 92.5zM90 102q0 56 37 92.5t92 36.5q56 0 92.5 -37t36.5 -112q0 -148 -153 -393l-70 35q66 115 106 249h-22q-44 0 -81.5 37.5t-37.5 91.5z" />
<glyph unicode="&#x3c;" horiz-adv-x="774" d="M66 616l473 474l116 -101l-374 -373l372 -372l-114 -103z" />
<glyph unicode="=" horiz-adv-x="1298" d="M190 360v152h918v-152h-918zM190 717v151h918v-151h-918z" />
<glyph unicode="&#x3e;" horiz-adv-x="774" d="M119 242l375 374l-375 373l117 101l473 -474l-478 -479z" />
<glyph unicode="?" horiz-adv-x="1181" d="M49 1141q243 112 510 112q111 0 206.5 -20t176.5 -62t127.5 -116.5t46.5 -173.5q0 -83 -26.5 -147.5t-71.5 -105.5t-109.5 -67.5t-135 -37.5t-152.5 -11h-9v-180h-151v332h160q323 0 323 219q0 59 -32 103t-88.5 68.5t-123 36t-145.5 11.5q-241 0 -469 -107zM397 102 q0 56 36.5 92.5t92.5 36.5t92.5 -36.5t36.5 -92.5t-36.5 -92.5t-92.5 -36.5t-92.5 36.5t-36.5 92.5z" />
<glyph unicode="@" horiz-adv-x="1562" d="M90 612q0 167 51.5 291.5t147 200t221.5 112.5t283 37q174 0 303.5 -44t206 -124.5t113 -184.5t36.5 -234q0 -198 -78 -305t-207 -107q-64 0 -104.5 25t-40.5 81v5l6 49q-54 -160 -264 -160q-77 0 -143 20.5t-119.5 62.5t-84 112.5t-30.5 162.5q0 91 30.5 161.5t83.5 113 t119 63.5t142 21q100 0 161.5 -37.5t90.5 -122.5l-8 70q-5 35 -5 41v32h152v-471q0 -100 49 -100q14 0 29 7t32 26t30 48t21.5 79t8.5 114q-2 107 -30 189t-86.5 145.5t-160 97t-243.5 33.5q-129 0 -230.5 -29t-176.5 -89.5t-114.5 -159.5t-39.5 -232q0 -506 573 -506 q122 0 291.5 20.5t302.5 57.5v-133q-140 -38 -307.5 -57t-294.5 -19q-132 0 -241 22.5t-198 72t-150 123.5t-94.5 180t-33.5 239zM539 612q0 -117 63.5 -172t167.5 -55t167.5 55t63.5 172q0 116 -64.5 172t-166.5 56q-104 0 -167.5 -56.5t-63.5 -171.5z" />
<glyph unicode="A" horiz-adv-x="1515" d="M25 0l655 1229h158l653 -1229h-191l-145 274h-795l-145 -274h-190zM444 434h627l-311 592z" />
<glyph unicode="B" horiz-adv-x="1515" d="M172 0v1229h799q86 0 159.5 -18t133.5 -54.5t94.5 -99.5t34.5 -146q0 -119 -62.5 -194t-169.5 -101q116 -20 186 -93.5t70 -198.5q0 -163 -116.5 -243.5t-305.5 -80.5h-823zM344 160h651q250 0 250 174q0 96 -71.5 148.5t-178.5 52.5h-651v-375zM344 694h627 q106 0 178 54t72 149q0 172 -250 172h-627v-375z" />
<glyph unicode="C" horiz-adv-x="1374" d="M109 614q0 165 52.5 290t146.5 200t214.5 112t265.5 37q272 0 506 -108l-47 -150q-218 99 -459 99q-108 0 -197.5 -27.5t-160 -83.5t-110 -150.5t-39.5 -218.5q0 -125 39 -218.5t109.5 -149.5t160.5 -83.5t198 -27.5q243 0 459 98l47 -149q-236 -109 -506 -109 q-145 0 -265.5 37t-214.5 112t-146.5 200t-52.5 290z" />
<glyph unicode="D" horiz-adv-x="1554" d="M172 0v1229h598q115 0 215 -22t185.5 -70t146 -119t95 -174t34.5 -230q0 -158 -52 -278t-145.5 -192.5t-213.5 -108t-265 -35.5h-598zM344 160h426q107 0 196 25.5t160 78.5t110.5 142.5t39.5 207.5q0 119 -39.5 208t-109.5 142t-159.5 79t-197.5 26h-426v-909z" />
<glyph unicode="E" horiz-adv-x="1366" d="M172 0v1229h1085v-160h-913v-375h813v-159h-813v-375h913v-160h-1085z" />
<glyph unicode="F" horiz-adv-x="1310" d="M172 0v1229h1085v-160h-913v-375h813v-159h-813v-535h-172z" />
<glyph unicode="G" horiz-adv-x="1509" d="M109 612q0 134 35.5 242t98 181.5t151.5 123t193 72t224 22.5q270 0 504 -108l-47 -150q-218 99 -453 99q-116 0 -211 -27.5t-168.5 -84t-114 -151t-40.5 -219.5t39.5 -219.5t110.5 -150.5t162.5 -83.5t203.5 -27.5q202 0 399 84v330h-500v139h652v-684h-91l-30 63 q-204 -88 -436 -88q-147 0 -268 37t-215 111.5t-146.5 199.5t-52.5 289z" />
<glyph unicode="H" horiz-adv-x="1605" d="M172 0v1229h172v-535h918v535h172v-1229h-172v535h-918v-535h-172z" />
<glyph unicode="I" horiz-adv-x="503" d="M166 0v1229h172v-1229h-172z" />
<glyph unicode="J" horiz-adv-x="1036" d="M61 66l54 147q161 -76 348 -76q38 0 67.5 4t65 19t59.5 41t40 74t16 114v840h172v-840q0 -100 -26.5 -175.5t-68 -119.5t-100 -71.5t-113 -36.5t-116.5 -9q-199 0 -398 89z" />
<glyph unicode="K" horiz-adv-x="1415" d="M172 0v1229h172v-539h309l488 539h207l-553 -615l553 -614h-207l-486 539h-311v-539h-172z" />
<glyph unicode="L" horiz-adv-x="1294" d="M172 0v1229h172v-1069h913v-160h-1085z" />
<glyph unicode="M" horiz-adv-x="2015" d="M172 0v1229h180l656 -1082l657 1082h178v-1229h-172v942l-573 -942h-180l-574 942v-942h-172z" />
<glyph unicode="N" horiz-adv-x="1568" d="M172 0v1229h172l881 -996v996h172v-1229h-172l-881 993v-993h-172z" />
<glyph unicode="O" horiz-adv-x="1576" d="M109 614q0 165 52.5 290t146.5 200t214.5 112t265.5 37q115 0 215.5 -22.5t186.5 -72t147.5 -123.5t96 -181t34.5 -240t-34.5 -240t-96 -181t-147.5 -123.5t-186.5 -72t-215.5 -22.5q-145 0 -265.5 37t-214.5 112t-146.5 200t-52.5 290zM281 614q0 -125 39 -218.5 t109.5 -149.5t160.5 -83.5t198 -27.5q109 0 198.5 27.5t160 83.5t110 149.5t39.5 218.5q0 124 -39.5 218.5t-110.5 150.5t-160.5 83.5t-197.5 27.5t-197.5 -27.5t-160 -83.5t-110 -150.5t-39.5 -218.5z" />
<glyph unicode="P" horiz-adv-x="1427" d="M170 0v1229h750q96 0 175.5 -24t141 -72t95.5 -127.5t34 -184.5t-34 -185t-95.5 -128t-141 -72t-175.5 -24h-578v-412h-172zM342 571h578q122 0 198 61t76 189q0 124 -75.5 186t-198.5 62h-578v-498z" />
<glyph unicode="Q" horiz-adv-x="1576" d="M109 614q0 165 52.5 290t146.5 200t214.5 112t265.5 37q115 0 215.5 -22.5t186.5 -72t147.5 -123.5t96 -181t34.5 -240t-34.5 -240t-96 -181t-147.5 -123.5t-186.5 -72t-215.5 -22.5l248 -45l412 -172l-68 -151q-13 5 -114.5 47t-123.5 51.5t-112 48t-128 56.5t-119.5 56 t-137.5 67t-132.5 69t-150.5 82q-253 159 -253 530zM281 614q0 -125 39 -218.5t109.5 -149.5t160.5 -83.5t198 -27.5q109 0 198.5 27.5t160 83.5t110 149.5t39.5 218.5q0 124 -39.5 218.5t-110.5 150.5t-160.5 83.5t-197.5 27.5t-197.5 -27.5t-160 -83.5t-110 -150.5 t-39.5 -218.5z" />
<glyph unicode="R" horiz-adv-x="1488" d="M170 0v1229h750q96 0 175.5 -24t141 -72t95.5 -127.5t34 -184.5q0 -181 -95 -284t-253 -121l346 -416h-213l-342 412h-467v-412h-172zM342 571h578q122 0 198 61t76 189q0 124 -75.5 186t-198.5 62h-578v-498z" />
<glyph unicode="S" horiz-adv-x="1335" d="M80 84l47 149q258 -104 520 -104q86 0 158.5 11t133 33.5t94.5 62t34 92.5q0 33 -12 59.5t-44.5 46.5t-57.5 32.5t-85.5 26t-91 19t-109.5 18.5q-20 3 -30 5q-71 11 -121.5 20t-111.5 24.5t-103.5 33t-85 44t-68 58.5t-41.5 76.5t-16 97.5q0 97 48.5 169.5t132 113.5 t183.5 61t216 20q283 0 526 -108l-59 -150q-222 99 -473 99q-110 0 -197 -18t-146 -64.5t-59 -116.5q0 -29 10 -52.5t24.5 -40.5t41.5 -31.5t50.5 -23.5t63 -18t66 -14t72.5 -13l16.5 -3t14.5 -2.5t16 -2.5q85 -14 140.5 -24.5t125.5 -27t114 -34.5t90.5 -44.5t72.5 -58 t42.5 -74.5t16.5 -95q0 -96 -53 -168.5t-142 -113t-191.5 -60t-215.5 -19.5q-143 0 -290.5 28t-266.5 81z" />
<glyph unicode="T" horiz-adv-x="1273" d="M35 1069v160h1204v-160h-508v-1069h-172v1069h-524z" />
<glyph unicode="U" horiz-adv-x="1531" d="M150 614v615h172v-615q0 -125 34.5 -218.5t96 -149.5t140 -83.5t173.5 -27.5t173.5 27.5t140 83.5t96 149.5t34.5 218.5v615h172v-615q0 -165 -47.5 -290t-132.5 -200t-194.5 -112t-241.5 -37t-241.5 37t-194.5 112t-132.5 200t-47.5 290z" />
<glyph unicode="V" horiz-adv-x="1515" d="M25 1229h190l545 -1026l540 1026h191l-653 -1229h-158z" />
<glyph unicode="W" horiz-adv-x="2058" d="M49 1229h187l348 -1020l366 1020h158l369 -1020l344 1020h188l-455 -1229h-157l-369 1010l-364 -1010h-158z" />
<glyph unicode="X" horiz-adv-x="1296" d="M14 0l535 629l-510 600h197l411 -486l414 486h196l-512 -600l537 -629h-197l-438 512l-436 -512h-197z" />
<glyph unicode="Y" horiz-adv-x="1357" d="M-6 1229h186l500 -631l498 631h186l-598 -770v-459h-172v459z" />
<glyph unicode="Z" horiz-adv-x="1314" d="M94 0v141l895 928h-866v160h1098v-142l-895 -927h895v-160h-1127z" />
<glyph unicode="[" horiz-adv-x="587" d="M160 -98v1425h368v-160h-196v-1106h196v-159h-368z" />
<glyph unicode="\" horiz-adv-x="874" d="M0 1364l147 59l727 -1558l-147 -60z" />
<glyph unicode="]" horiz-adv-x="587" d="M59 61h197v1106h-197v160h369v-1425h-369v159z" />
<glyph unicode="^" horiz-adv-x="1261" d="M158 909l475 471l471 -471l-98 -116l-373 372l-375 -372z" />
<glyph unicode="_" horiz-adv-x="1155" d="M-4 -352h1163v-131h-1163v131z" />
<glyph unicode="`" horiz-adv-x="1153" d="M303 1311l111 82l348 -191l-49 -72z" />
<glyph unicode="a" horiz-adv-x="1257" d="M104 279q0 70 28 121.5t70 81t103.5 47t117 23t122.5 5.5h430q-10 161 -98 231t-259 70q-230 0 -399 -76l-53 123q208 92 457 92q505 0 505 -489v-232q0 -154 52 -276h-148q-28 63 -39 176l13 70l-2 2q-50 -137 -174 -205t-300 -68q-189 0 -307.5 77.5t-118.5 226.5z M256 270q0 -155 303 -155q195 0 297 72t119 231h-428q-56 0 -99.5 -5t-91 -19t-74 -45.5t-26.5 -78.5z" />
<glyph unicode="b" d="M170 76v1337l152 21v-549q0 -24 -5 -50t-13 -57.5t-11 -50.5l2 -2q48 136 165 204t277 68q103 0 189 -29.5t154 -89t106.5 -159t38.5 -230.5q0 -135 -40.5 -235.5t-115 -160.5t-171.5 -89t-218 -29q-118 0 -254 26.5t-256 74.5zM322 170q173 -55 360 -55q181 0 286 90 t105 278q0 98 -29 172t-81 117.5t-118.5 64.5t-146.5 21t-146.5 -21t-119 -64.5t-81.5 -117t-29 -170.5v-315z" />
<glyph unicode="c" horiz-adv-x="1126" d="M78 487q0 106 29 191t80.5 144t124 99t157 58t182.5 18q207 0 406 -92l-58 -123q-161 76 -348 76q-88 0 -162.5 -21.5t-133.5 -64.5t-92.5 -116t-33.5 -169t33.5 -168.5t92.5 -116t133 -64.5t163 -21q187 0 348 76l58 -125q-201 -93 -406 -93q-123 0 -224.5 29.5t-181 90 t-123.5 160.5t-44 232z" />
<glyph unicode="d" d="M104 483q0 134 41 235t114.5 161t167.5 89t208 29q258 0 428 -133l-55 72v477l151 21v-1158q0 -157 51 -276h-147q-28 63 -39 176l12 70l-2 2q-48 -136 -165 -204.5t-275 -68.5q-103 0 -190 29.5t-155 89t-106.5 159t-38.5 230.5zM256 487q0 -98 29 -171t81 -116 t118.5 -64t146.5 -21t146.5 21t119 64t82 116.5t29.5 170.5v250q-69 60 -166.5 90.5t-202.5 30.5q-176 0 -279.5 -91t-103.5 -280z" />
<glyph unicode="e" horiz-adv-x="1253" d="M109 487q0 105 28 191t76.5 144.5t117.5 98.5t149 58t171 18q112 0 207 -28.5t171 -85t119.5 -152t43.5 -219.5q0 -50 -8 -94h-922q13 -106 71.5 -175.5t144.5 -98.5t200 -29q96 0 202 19.5t185 55.5l57 -122q-214 -93 -450 -93q-120 0 -220.5 29.5t-178 90t-121 160.5 t-43.5 232zM262 557h774q-13 104 -68 173t-134.5 98.5t-182.5 29.5q-105 0 -185.5 -29.5t-135.5 -98.5t-68 -173z" />
<glyph unicode="f" horiz-adv-x="671" d="M80 842v131h123v110q0 192 69 271.5t236 79.5q114 0 213 -41l-41 -123q-88 24 -178 24q-84 0 -116 -46t-32 -165v-110h348v-131h-348v-842h-151v842h-123z" />
<glyph unicode="g" d="M102 483q0 131 41.5 231.5t115 161t167 91t203.5 30.5q263 0 432 -153l-55 71l20 58h131v-996q0 -122 -42 -214t-116.5 -147.5t-170 -82.5t-210.5 -27q-205 0 -419 93l41 122q177 -83 374 -83q86 0 156 19.5t123.5 59.5t83 106t29.5 154v111q0 24 4.5 50t12.5 58t11 50 l-2 2q-48 -136 -165.5 -204.5t-276.5 -68.5q-103 0 -189 29.5t-154 89t-106.5 159t-38.5 230.5zM254 487q0 -98 29 -171t81 -116t118.5 -64t146.5 -21t146.5 21t119 64t82 116.5t29.5 170.5v230q-141 141 -377 141q-80 0 -146.5 -21.5t-118.5 -64.5t-81 -116t-29 -169z" />
<glyph unicode="h" horiz-adv-x="1280" d="M170 0v1413l152 21v-549q0 -24 -5 -50t-13 -57.5t-11 -50.5l2 -2q48 136 164.5 204t271.5 68q95 0 173.5 -27t139 -82t94 -146.5t33.5 -211.5v-530h-151v524q0 171 -89 252.5t-239 81.5q-77 0 -142 -21t-117 -64.5t-81.5 -117t-29.5 -170.5v-485h-152z" />
<glyph unicode="i" horiz-adv-x="430" d="M129 1270q0 36 25 61t61 25t61 -26.5t25 -59.5q0 -38 -25 -62t-61 -24q-35 0 -60.5 25.5t-25.5 60.5zM139 0v973h152v-973h-152z" />
<glyph unicode="j" horiz-adv-x="430" d="M-63 -451l36 127q32 -12 72 -12q54 0 74 29.5t20 107.5v1172h152v-1172q0 -146 -54.5 -207t-183.5 -61q-60 0 -116 16zM129 1270q0 36 25 61t61 25t61 -25t25 -61q0 -35 -25.5 -60.5t-60.5 -25.5t-60.5 25.5t-25.5 60.5z" />
<glyph unicode="k" horiz-adv-x="1148" d="M150 0v1413l151 21v-881h244l379 420h188l-438 -486l438 -487h-188l-379 422h-244v-422h-151z" />
<glyph unicode="l" horiz-adv-x="430" d="M139 0v1413l152 21v-1434h-152z" />
<glyph unicode="m" horiz-adv-x="1904" d="M98 973h148q28 -63 39 -176l-13 -70l2 -2q41 136 139.5 204t231.5 68q63 0 117 -16t99 -49t74.5 -89.5t37.5 -131.5q32 96 99.5 162t149 95t173.5 29q77 0 143 -22t120.5 -67.5t86 -124.5t31.5 -183v-600h-152v600q0 134 -64 196t-165 62q-62 0 -122.5 -21.5t-114 -64 t-87 -117t-33.5 -170.5v-485h-151v600q0 133 -67.5 195.5t-170.5 62.5q-62 0 -121.5 -21.5t-111.5 -64t-83.5 -117t-31.5 -170.5v-485h-151v696q0 155 -52 277z" />
<glyph unicode="n" horiz-adv-x="1280" d="M98 973h148q28 -63 39 -176l-13 -70l2 -2q48 136 165 204t276 68q203 0 319.5 -113t116.5 -345v-539h-152v539q0 164 -81 241.5t-226 77.5q-77 0 -145 -21t-124 -64t-89 -117t-33 -171v-485h-151v696q0 155 -52 277z" />
<glyph unicode="o" horiz-adv-x="1255" d="M76 487q0 105 28 190.5t78 144.5t120 99t151.5 58t175.5 18q93 0 174.5 -18t151 -58t119.5 -98.5t78 -144.5t28 -191q0 -132 -42.5 -232t-119 -160.5t-174.5 -90t-215 -29.5q-94 0 -175.5 18t-151.5 58t-120 99t-78 145t-28 192zM227 487q0 -97 31.5 -170.5t88 -116.5 t127 -64t155.5 -21q86 0 156.5 21t125.5 64t86 116t31 171q0 96 -31 169t-86.5 116t-126 64.5t-155.5 21.5t-156.5 -21.5t-127 -64.5t-87 -116t-31.5 -169z" />
<glyph unicode="p" d="M98 973h148q28 -63 39 -176l-13 -70l2 -2q48 136 165 204t276 68q103 0 190 -29.5t155 -89t106 -159t38 -230.5q0 -134 -41 -235t-114 -161t-167 -89t-208 -29q-257 0 -428 134l55 -72v-504h-151v1163q0 155 -52 277zM301 236q69 -60 166.5 -90.5t202.5 -30.5 q176 0 279.5 90.5t103.5 279.5q0 190 -104 281.5t-271 91.5q-80 0 -146.5 -21t-119 -64.5t-82 -117t-29.5 -170.5v-249z" />
<glyph unicode="q" d="M82 483q0 131 41.5 231.5t114.5 161t166.5 91t203.5 30.5q263 0 432 -153l-55 71l21 58h131v-1440h-152v555q0 24 5 50t13 57.5t11 50.5l-2 2q-48 -136 -166 -204.5t-277 -68.5q-103 0 -189 29.5t-154 89t-106 159t-38 230.5zM233 487q0 -98 29 -171t81 -116t118.5 -64 t146.5 -21t146.5 21t119 64t82 116.5t29.5 170.5v230q-141 141 -377 141q-79 0 -145.5 -21.5t-118.5 -64.5t-81.5 -116t-29.5 -169z" />
<glyph unicode="r" horiz-adv-x="761" d="M98 973h148q28 -63 39 -176l-13 -70l2 -2q42 121 130 191.5t204 70.5q74 0 140 -18l-37 -127q-93 6 -97 6q-54 0 -108.5 -24t-100.5 -67.5t-75 -115t-29 -156.5v-485h-151v696q0 155 -52 277z" />
<glyph unicode="s" horiz-adv-x="1046" d="M51 68l53 127q86 -38 198.5 -59t217.5 -21q61 0 115.5 8.5t100.5 25t73 46t27 67.5q0 30 -18.5 54.5t-46.5 40.5t-75 29.5t-89 22t-103 17.5q-51 9 -76 13.5t-71 14t-70 17.5t-61 21t-57 27t-44.5 34t-36.5 42.5t-20.5 52t-8.5 63.5q0 75 37.5 132t102.5 89.5t143 48.5 t168 16q219 0 440 -92l-53 -127q-184 80 -387 80q-82 0 -146 -13t-108.5 -46.5t-44.5 -85.5q0 -25 10.5 -45.5t33.5 -35.5t46.5 -25.5t63 -19.5t69.5 -14t78 -12q86 -14 145.5 -26.5t126.5 -36.5t108 -53.5t68 -76.5t27 -106q0 -75 -40.5 -132.5t-109 -90t-149 -48.5 t-170.5 -16q-115 0 -239 25t-228 68z" />
<glyph unicode="t" horiz-adv-x="770" d="M43 842v131h123l20 237l131 19v-256h359v-131h-359v-514q0 -124 31.5 -171.5t116.5 -47.5q94 0 178 32l41 -127q-95 -37 -213 -37q-167 0 -236 79t-69 272v514h-123z" />
<glyph unicode="u" horiz-adv-x="1280" d="M129 434v539h152v-539q0 -164 80.5 -241.5t226.5 -77.5q77 0 145 21t124 64t89 116.5t33 170.5v486h151v-697q0 -154 52 -276h-148q-28 63 -39 176l13 70l-2 2q-48 -136 -165.5 -204.5t-275.5 -68.5q-203 0 -319.5 113t-116.5 346z" />
<glyph unicode="v" horiz-adv-x="1259" d="M37 973h170l426 -791l422 791h168l-533 -973h-117z" />
<glyph unicode="w" horiz-adv-x="1695" d="M37 973h156l284 -764l314 764h114l314 -764l284 764h156l-381 -973h-117l-313 758l-313 -758h-117z" />
<glyph unicode="x" horiz-adv-x="1038" d="M25 0l403 485l-403 488h180l313 -379l316 379h180l-406 -488l406 -485h-180l-316 377l-313 -377h-180z" />
<glyph unicode="y" horiz-adv-x="1259" d="M47 973h170l416 -830l405 830h162l-633 -1290q-39 -80 -98.5 -115t-165.5 -35q-102 0 -168 37l41 127q67 -33 139 -33q51 0 79.5 23.5t56.5 81.5l102 213z" />
<glyph unicode="z" horiz-adv-x="1019" d="M63 0v121l685 721h-660v131h866v-121l-684 -721h684v-131h-891z" />
<glyph unicode="{" horiz-adv-x="667" d="M49 549v131q62 0 107.5 29t69 59.5t40.5 104.5t20.5 107.5t10.5 125.5q1 13 2 20q2 28 4.5 49t10.5 55t21 59.5t37 54.5t55.5 48t80 31.5t108.5 12.5v-160q-36 0 -63 -11t-41 -23.5t-23.5 -36.5t-11.5 -35.5t-5 -34.5q-1 -5 -1 -7q-11 -118 -24 -194t-37 -147t-63 -112.5 t-97 -60.5q57 -19 96 -60.5t63 -113t37.5 -147.5t24.5 -193q9 -67 28 -95q34 -52 117 -52v-160q-60 0 -108.5 12.5t-80 31t-55.5 47.5t-37 54.5t-21 60t-10.5 55.5t-4.5 48q-14 184 -32 255q-41 160 -162 186q-26 6 -56 6z" />
<glyph unicode="|" horiz-adv-x="536" d="M193 -246v1721h151v-1721h-151z" />
<glyph unicode="}" horiz-adv-x="667" d="M72 -47q36 0 63 11t41 23.5t23.5 36.5t11.5 35t5 34q1 5 1 7q7 89 17 155.5t26.5 130.5t39.5 107t58 75t80 46q-108 33 -155 157t-66 357q-9 67 -27 95q-36 52 -118 53v160q81 0 141.5 -24t90.5 -51.5t50.5 -79t24.5 -76t9 -72.5q1 -5 1 -7q14 -181 32 -250 q42 -167 168 -191q23 -5 50 -5v-131q-52 0 -92 -16.5t-65.5 -49t-42.5 -70.5t-26 -90t-14 -98.5t-9 -104.5q-1 -12 -1 -18q-11 -108 -36 -162q-69 -147 -281 -147v160z" />
<glyph unicode="~" horiz-adv-x="1130" d="M160 461q0 149 72.5 227t168.5 78q61 0 103 -22t94 -66q25 -21 40.5 -32.5t41 -21.5t51.5 -10q84 0 84 148h154q0 -152 -67.5 -226.5t-172.5 -74.5q-49 0 -90.5 14t-64.5 30t-58 46q-30 28 -57 42.5t-64 14.5q-82 0 -82 -147h-153z" />
<glyph unicode="&#xa2;" horiz-adv-x="1126" d="M98 487q0 119 36.5 212t103.5 153.5t153.5 95.5t192.5 45v226h131v-224q181 -8 362 -90l-41 -123q-149 73 -321 82v-755q164 9 321 84l41 -125q-184 -83 -362 -91v-223h-131v226q-106 9 -193 43.5t-153.5 95t-103 154.5t-36.5 214zM250 487q0 -168 90.5 -260t243.5 -114 v747q-153 -22 -243.5 -113.5t-90.5 -259.5z" />
<glyph unicode="&#xa3;" horiz-adv-x="1386" d="M102 637v151h160q-4 46 -4 72q0 180 136.5 285.5t371.5 105.5q221 0 420 -88l-49 -149q-183 86 -375 86q-164 0 -248 -70.5t-84 -183.5q0 -47 4 -58h340v-151h-291q49 -112 49 -191q0 -98 -67 -192q24 6 55 6q51 0 102 -17t88 -37t95.5 -37t122.5 -17q149 0 293 63 l61 -147q-155 -68 -319 -68q-66 0 -120.5 10.5t-91.5 26t-72.5 31t-80.5 26t-98 10.5q-62 0 -96 -21t-56 -83h-131q0 41 15.5 85t37 83.5t42.5 81.5t35.5 94.5t12.5 106.5q-6 83 -49 186h-209z" />
<glyph unicode="&#xa5;" horiz-adv-x="1357" d="M-6 1229h186l490 -619h18l490 619h186l-481 -619h254v-131h-355l-16 -20v-144h371v-131h-371v-184h-172v184h-375v131h375v144l-16 20h-359v131h256z" />
<glyph unicode="&#xa8;" horiz-adv-x="1200" d="M317 1270q0 35 25.5 60.5t60.5 25.5t60.5 -25.5t25.5 -60.5t-25.5 -60.5t-60.5 -25.5t-60.5 25.5t-25.5 60.5zM711 1270q0 35 25.5 60.5t60.5 25.5t60.5 -25.5t25.5 -60.5t-25.5 -60.5t-60.5 -25.5t-60.5 25.5t-25.5 60.5z" />
<glyph unicode="&#xa9;" horiz-adv-x="1495" d="M88 614q0 133 33.5 240t92.5 181t142.5 123.5t181 72t210.5 22.5q142 0 259 -37t208 -112t141.5 -200t50.5 -290t-50.5 -290t-141.5 -200t-208 -112t-259 -37q-113 0 -210.5 22.5t-181 72t-142.5 123.5t-92.5 181t-33.5 240zM168 614q0 -145 45 -255.5t125 -176.5 t183 -98.5t227 -32.5q99 0 184 20t158.5 63.5t125.5 108.5t81.5 159.5t29.5 211.5t-29.5 211.5t-81.5 159.5t-125.5 109t-158.5 64t-184 20q-124 0 -227 -32.5t-183 -99t-125 -177t-45 -255.5zM344 614q0 98 32 173t89.5 120t131 67.5t161.5 22.5q164 0 303 -71l-35 -97 q-119 64 -268 64q-131 0 -212 -69.5t-81 -209.5q0 -72 23 -127t64.5 -87t93 -48t112.5 -16q147 0 268 59l35 -92q-141 -72 -303 -72q-88 0 -161.5 22.5t-131 67.5t-89.5 120t-32 173z" />
<glyph unicode="&#xab;" horiz-adv-x="1140" d="M102 616l473 474l117 -101l-375 -373l373 -372l-115 -103zM449 616l473 474l116 -101l-374 -373l372 -372l-114 -103z" />
<glyph unicode="&#xad;" horiz-adv-x="958" d="M143 549v131h672v-131h-672z" />
<glyph unicode="&#xae;" horiz-adv-x="876" d="M53 1090q0 95 29.5 167t82.5 115t121.5 64.5t151.5 21.5q81 0 149.5 -21.5t122 -64.5t83.5 -115t30 -167q0 -186 -107.5 -277.5t-277.5 -91.5q-83 0 -151.5 21.5t-121.5 64.5t-82.5 115t-29.5 168zM115 1090q0 -158 89.5 -235t233.5 -77q142 0 233 77.5t91 234.5t-90 234 t-234 77q-145 0 -234 -77t-89 -234zM285 905v369h209q64 2 104.5 -29t40.5 -92q0 -53 -27 -84t-71 -37l77 -127h-86l-75 127h-101v-127h-71zM356 1094h138q31 -2 52 13t21 46q0 29 -21 45t-52 14h-138v-118z" />
<glyph unicode="&#xb4;" horiz-adv-x="1153" d="M365 1202l348 191l110 -82l-409 -181z" />
<glyph unicode="&#xb8;" horiz-adv-x="1282" d="M358 -348l33 88q96 -41 201 -41q108 0 108 59q0 54 -104 54h-86v90l41 98h111l-41 -98h16q67 0 125.5 -38t58.5 -112q0 -53 -33.5 -88.5t-82.5 -50t-109 -14.5q-119 0 -238 53z" />
<glyph unicode="&#xbb;" horiz-adv-x="1142" d="M104 242l375 374l-375 373l117 101l473 -474l-477 -479zM451 242l374 374l-374 373l116 101l473 -474l-477 -479z" />
<glyph unicode="&#x2c6;" horiz-adv-x="1179" d="M242 1202l348 191l348 -191l-49 -72l-299 130l-299 -130z" />
<glyph unicode="&#x2da;" horiz-adv-x="921" d="M309 1272q0 63 44.5 107t107.5 44t107 -44t44 -107t-44 -107.5t-107 -44.5t-107.5 44.5t-44.5 107.5zM391 1272q0 -29 20.5 -49.5t49.5 -20.5t49 20.5t20 49.5t-20 49t-49 20t-49.5 -20t-20.5 -49z" />
<glyph unicode="&#x2dc;" horiz-adv-x="1048" d="M223 1139q26 86 66.5 125t101.5 39q56 0 145 -42t126 -42q28 0 44.5 19.5t34.5 68.5l88 -15q-26 -86 -66.5 -125t-100.5 -39q-56 0 -144.5 42t-126.5 42q-28 0 -44.5 -18.5t-35.5 -69.5z" />
<glyph unicode="&#x400;" horiz-adv-x="1366" d="M172 0v1229h1085v-160h-913v-375h813v-159h-813v-375h913v-160h-1085zM475 1556l111 82l348 -190l-49 -72z" />
<glyph unicode="&#x401;" horiz-adv-x="1366" d="M172 0v1229h1085v-160h-913v-375h813v-159h-813v-375h913v-160h-1085zM420 1526q0 35 25.5 60.5t60.5 25.5t60.5 -25.5t25.5 -60.5t-25.5 -60.5t-60.5 -25.5t-60.5 25.5t-25.5 60.5zM813 1526q0 35 25.5 60.5t60.5 25.5t60.5 -25.5t25.5 -60.5t-25.5 -60.5t-60.5 -25.5 t-60.5 25.5t-25.5 60.5z" />
<glyph unicode="&#x402;" horiz-adv-x="1607" d="M55 1069v160h918v-160h-467v-293l-25 -35l2 -2q86 74 216.5 115t250.5 41q241 0 374.5 -111t133.5 -348q0 -236 -117 -347.5t-325 -111.5q-207 0 -406 89l52 151q166 -80 354 -80q270 0 270 299t-342 299q-121 0 -239.5 -42t-198.5 -118v-575h-172v1069h-279z" />
<glyph unicode="&#x403;" horiz-adv-x="1294" d="M172 0v1229h1085v-152h-913v-1077h-172zM492 1458l348 191l110 -82l-409 -181z" />
<glyph unicode="&#x404;" horiz-adv-x="1374" d="M109 614q0 165 52.5 290t146.5 200t214.5 112t265.5 37q272 0 506 -108l-37 -150q-228 107 -469 107q-207 0 -343 -102.5t-160 -309.5h819v-151h-819q24 -207 160 -309.5t343 -102.5q243 0 469 106l37 -149q-236 -109 -506 -109q-145 0 -265.5 37t-214.5 112t-146.5 200 t-52.5 290z" />
<glyph unicode="&#x405;" horiz-adv-x="1335" d="M80 84l47 149q258 -104 520 -104q86 0 158.5 11t133 33.5t94.5 62t34 92.5q0 33 -12 59.5t-44.5 46.5t-57.5 32.5t-85.5 26t-91 19t-109.5 18.5q-20 3 -30 5q-71 11 -121.5 20t-111.5 24.5t-103.5 33t-85 44t-68 58.5t-41.5 76.5t-16 97.5q0 97 48.5 169.5t132 113.5 t183.5 61t216 20q283 0 526 -108l-59 -150q-222 99 -473 99q-110 0 -197 -18t-146 -64.5t-59 -116.5q0 -29 10 -52.5t24.5 -40.5t41.5 -31.5t50.5 -23.5t63 -18t66 -14t72.5 -13l16.5 -3t14.5 -2.5t16 -2.5q85 -14 140.5 -24.5t125.5 -27t114 -34.5t90.5 -44.5t72.5 -58 t42.5 -74.5t16.5 -95q0 -96 -53 -168.5t-142 -113t-191.5 -60t-215.5 -19.5q-143 0 -290.5 28t-266.5 81z" />
<glyph unicode="&#x406;" horiz-adv-x="503" d="M166 0v1229h172v-1229h-172z" />
<glyph unicode="&#x407;" horiz-adv-x="503" d="M-29 1526q0 35 25.5 60.5t60.5 25.5t60.5 -25.5t25.5 -60.5t-25.5 -60.5t-60.5 -25.5t-60.5 25.5t-25.5 60.5zM166 0v1229h172v-1229h-172zM365 1526q0 35 25.5 60.5t60.5 25.5t60.5 -25.5t25.5 -60.5t-25.5 -60.5t-60.5 -25.5t-60.5 25.5t-25.5 60.5z" />
<glyph unicode="&#x408;" horiz-adv-x="1036" d="M61 66l54 147q161 -76 348 -76q38 0 67.5 4t65 19t59.5 41t40 74t16 114v840h172v-840q0 -100 -26.5 -175.5t-68 -119.5t-100 -71.5t-113 -36.5t-116.5 -9q-199 0 -398 89z" />
<glyph unicode="&#x409;" horiz-adv-x="2285" d="M37 4l24 148q16 -7 70 -7q74 0 100.5 53.5t38.5 213.5l54 817h893v-412h495q96 0 175.5 -23.5t141 -71.5t96 -127.5t34.5 -184.5t-34.5 -185.5t-96 -128.5t-141 -72t-175.5 -24h-668v1077h-561l-41 -665q-8 -105 -21 -173t-33.5 -118.5t-54.5 -76.5t-79.5 -38t-114.5 -12 q-53 0 -102 10zM1217 152h495q122 0 198.5 63t76.5 195q0 127 -77.5 191.5t-197.5 64.5h-495v-514z" />
<glyph unicode="&#x40a;" horiz-adv-x="2443" d="M172 0v1229h172v-535h856v535h172v-412h496q96 0 175.5 -23.5t141 -71.5t95.5 -127.5t34 -184.5t-34 -185.5t-95.5 -128.5t-141 -72t-175.5 -24h-668v535h-856v-535h-172zM1372 152h496q122 0 198 63t76 195q0 127 -77 191.5t-197 64.5h-496v-514z" />
<glyph unicode="&#x40b;" horiz-adv-x="1607" d="M55 1069v160h918v-160h-467v-293l-25 -35l2 -2q86 74 216.5 115t250.5 41q241 0 374.5 -111t133.5 -348v-436h-172v436q0 299 -342 299q-121 0 -239.5 -42t-198.5 -118v-575h-172v1069h-279z" />
<glyph unicode="&#x40c;" horiz-adv-x="1415" d="M172 0v1229h172v-539h309l488 539h207l-553 -615l553 -614h-207l-486 539h-311v-539h-172zM489 1458l349 191l110 -82l-409 -181z" />
<glyph unicode="&#x40d;" horiz-adv-x="1568" d="M172 0v1229h172v-996l881 996h172v-1229h-172v993l-881 -993h-172zM506 1567l110 82l349 -191l-50 -72z" />
<glyph unicode="&#x40e;" horiz-adv-x="1347" d="M45 1229h176l488 -807l419 807h175l-596 -1120q-37 -64 -86 -91.5t-138 -27.5q-81 0 -147 37l35 141q65 -27 137 -27q23 0 47 13t35 39l39 75zM406 1608h110q0 -61 54 -93t124 -32q71 0 125.5 32t54.5 93h111q0 -73 -45 -123.5t-108.5 -71t-137.5 -20.5q-73 0 -136 20.5 t-107.5 71t-44.5 123.5z" />
<glyph unicode="&#x40f;" horiz-adv-x="1507" d="M172 0v1229h172v-1077h819v1077h172v-1229h-495v-354h-172v354h-496z" />
<glyph unicode="&#x410;" horiz-adv-x="1515" d="M25 0l655 1229h158l653 -1229h-191l-145 274h-795l-145 -274h-190zM444 434h627l-311 592z" />
<glyph unicode="&#x411;" horiz-adv-x="1515" d="M172 0v1229h1106v-152h-934v-311h578q96 0 175.5 -22.5t141 -67.5t95.5 -120t34 -173t-34 -173t-95.5 -120t-141 -67.5t-175.5 -22.5h-750zM344 152h578q121 0 197.5 57t76.5 174t-75.5 174t-198.5 57h-578v-462z" />
<glyph unicode="&#x412;" horiz-adv-x="1515" d="M172 0v1229h799q86 0 159.5 -18t133.5 -54.5t94.5 -99.5t34.5 -146q0 -119 -62.5 -194t-169.5 -101q116 -20 186 -93.5t70 -198.5q0 -163 -116.5 -243.5t-305.5 -80.5h-823zM344 160h651q250 0 250 174q0 96 -71.5 148.5t-178.5 52.5h-651v-375zM344 694h627 q106 0 178 54t72 149q0 172 -250 172h-627v-375z" />
<glyph unicode="&#x413;" horiz-adv-x="1294" d="M172 0v1229h1085v-152h-913v-1077h-172z" />
<glyph unicode="&#x414;" horiz-adv-x="1482" d="M25 152h92q75 96 104.5 183.5t50.5 258.5l43 635h996v-1077h147v-447h-151v295h-1131v-295h-151v447zM315 152h824v925h-666l-29 -483q-11 -166 -38 -252.5t-91 -189.5z" />
<glyph unicode="&#x415;" horiz-adv-x="1366" d="M172 0v1229h1085v-160h-913v-375h813v-159h-813v-375h913v-160h-1085z" />
<glyph unicode="&#x416;" horiz-adv-x="1957" d="M53 0l553 614l-553 615h207l488 -539h145v539h172v-539h145l488 539h207l-553 -615l553 -614h-207l-486 539h-147v-539h-172v539h-148l-485 -539h-207z" />
<glyph unicode="&#x417;" horiz-adv-x="1292" d="M76 84l37 149q112 -49 251 -77.5t263 -28.5q75 0 142.5 11t125.5 34t92.5 63.5t34.5 94.5q0 102 -116 155.5t-294 53.5h-159v151h159q175 0 280 52.5t105 154.5q0 70 -53 117.5t-134 67.5t-185 20q-250 0 -486 -107l-37 150q243 108 516 108q110 0 207.5 -21t175 -61.5 t123 -108t45.5 -153.5q0 -237 -340 -295q166 -22 265.5 -95t99.5 -200q0 -88 -50.5 -156t-134 -108t-182 -60t-204.5 -20q-134 0 -282.5 28.5t-264.5 80.5z" />
<glyph unicode="&#x418;" horiz-adv-x="1568" d="M172 0v1229h172v-996l881 996h172v-1229h-172v993l-881 -993h-172z" />
<glyph unicode="&#x419;" horiz-adv-x="1568" d="M172 0v1229h172v-996l881 996h172v-1229h-172v993l-881 -993h-172zM496 1608h110q0 -61 54 -93t124 -32q71 0 126 32t55 93h110q0 -73 -45 -123.5t-108.5 -71t-137.5 -20.5q-73 0 -136 20.5t-107.5 71t-44.5 123.5z" />
<glyph unicode="&#x41a;" horiz-adv-x="1415" d="M172 0v1229h172v-539h309l488 539h207l-553 -615l553 -614h-207l-486 539h-311v-539h-172z" />
<glyph unicode="&#x41b;" horiz-adv-x="1449" d="M37 4l24 148q16 -7 70 -7q74 0 100.5 53.5t38.5 213.5l54 817h954v-1229h-172v1077h-623l-41 -665q-8 -105 -21 -173t-33.5 -118.5t-54.5 -76.5t-79.5 -38t-114.5 -12q-53 0 -102 10z" />
<glyph unicode="&#x41c;" horiz-adv-x="2015" d="M172 0v1229h180l656 -1082l657 1082h178v-1229h-172v942l-573 -942h-180l-574 942v-942h-172z" />
<glyph unicode="&#x41d;" horiz-adv-x="1605" d="M172 0v1229h172v-535h918v535h172v-1229h-172v535h-918v-535h-172z" />
<glyph unicode="&#x41e;" horiz-adv-x="1576" d="M109 614q0 165 52.5 290t146.5 200t214.5 112t265.5 37q115 0 215.5 -22.5t186.5 -72t147.5 -123.5t96 -181t34.5 -240t-34.5 -240t-96 -181t-147.5 -123.5t-186.5 -72t-215.5 -22.5q-145 0 -265.5 37t-214.5 112t-146.5 200t-52.5 290zM281 614q0 -125 39 -218.5 t109.5 -149.5t160.5 -83.5t198 -27.5q109 0 198.5 27.5t160 83.5t110 149.5t39.5 218.5q0 124 -39.5 218.5t-110.5 150.5t-160.5 83.5t-197.5 27.5t-197.5 -27.5t-160 -83.5t-110 -150.5t-39.5 -218.5z" />
<glyph unicode="&#x41f;" horiz-adv-x="1548" d="M172 0v1229h1204v-1229h-172v1077h-860v-1077h-172z" />
<glyph unicode="&#x420;" horiz-adv-x="1427" d="M170 0v1229h750q96 0 175.5 -24t141 -72t95.5 -127.5t34 -184.5t-34 -185t-95.5 -128t-141 -72t-175.5 -24h-578v-412h-172zM342 571h578q122 0 198 61t76 189q0 124 -75.5 186t-198.5 62h-578v-498z" />
<glyph unicode="&#x421;" horiz-adv-x="1374" d="M109 614q0 165 52.5 290t146.5 200t214.5 112t265.5 37q272 0 506 -108l-47 -150q-218 99 -459 99q-108 0 -197.5 -27.5t-160 -83.5t-110 -150.5t-39.5 -218.5q0 -125 39 -218.5t109.5 -149.5t160.5 -83.5t198 -27.5q243 0 459 98l47 -149q-236 -109 -506 -109 q-145 0 -265.5 37t-214.5 112t-146.5 200t-52.5 290z" />
<glyph unicode="&#x422;" horiz-adv-x="1273" d="M35 1069v160h1204v-160h-508v-1069h-172v1069h-524z" />
<glyph unicode="&#x423;" horiz-adv-x="1347" d="M45 1229h176l488 -807l419 807h175l-596 -1120q-37 -64 -86 -91.5t-138 -27.5q-81 0 -147 37l35 141q65 -27 137 -27q23 0 47 13t35 39l39 75z" />
<glyph unicode="&#x424;" horiz-adv-x="1773" d="M109 614q0 92 21 165.5t56 124.5t89.5 88.5t111 59t130.5 34t138.5 16.5t145.5 4v123h172v-123q80 0 144.5 -4t138.5 -16.5t130.5 -34t111 -59t89.5 -88.5t56.5 -124.5t21.5 -165.5q0 -81 -15.5 -147.5t-46 -115t-69 -86t-91 -62t-104.5 -41t-117.5 -25t-122.5 -11.5 t-126 -3v-123h-172v123q-81 0 -145.5 4t-139 16.5t-130.5 34t-110.5 58.5t-89.5 88t-56 124.5t-21 165.5zM281 614q0 -66 16 -118t42 -87t68 -60.5t83 -40t98.5 -22.5t104 -10t108.5 -2v680q-62 0 -108.5 -2t-104 -10t-98.5 -22.5t-83 -40t-68 -60.5t-42 -87t-16 -118z M973 274q61 0 107.5 2t103.5 10t98.5 22.5t83.5 40t68 60.5t42.5 87t16.5 118t-16.5 118t-42.5 87t-68 60.5t-83.5 40t-98.5 22.5t-103.5 10t-107.5 2v-680z" />
<glyph unicode="&#x425;" horiz-adv-x="1296" d="M14 0l535 629l-510 600h197l411 -486l414 486h196l-512 -600l537 -629h-197l-438 512l-436 -512h-197z" />
<glyph unicode="&#x426;" horiz-adv-x="1507" d="M172 0v1229h172v-1077h819v1077h172v-1077h127v-447h-151v295h-1139z" />
<glyph unicode="&#x427;" horiz-adv-x="1421" d="M109 809v420h172v-418q0 -164 113.5 -234.5t334.5 -70.5q60 0 116.5 4t78.5 6.5t84.5 13t68.5 11.5v688h172v-1229h-172v395q-103 -22 -179 -31.5t-183 -9.5q-142 0 -251 25t-190 78t-123 141.5t-42 210.5z" />
<glyph unicode="&#x428;" horiz-adv-x="1900" d="M172 0v1229h172v-1077h520v1077h172v-1077h520v1077h173v-1229h-1557z" />
<glyph unicode="&#x429;" horiz-adv-x="2048" d="M172 0v1229h172v-1077h520v1077h172v-1077h520v1077h173v-1077h126v-447h-151v295h-1532z" />
<glyph unicode="&#x42a;" horiz-adv-x="1558" d="M0 1077v152h426v-412h578q96 0 175.5 -24t141 -72.5t95.5 -129.5t34 -188q0 -103 -34.5 -183t-95 -128.5t-141 -72t-175.5 -19.5h-750v1077h-254zM426 152h578q118 -8 196 58t78 193q0 131 -76.5 197t-197.5 66h-578v-514z" />
<glyph unicode="&#x42b;" horiz-adv-x="1843" d="M172 0v1229h172v-412h578q96 0 175.5 -23.5t141 -71.5t95.5 -127.5t34 -184.5q0 -208 -124.5 -313t-321.5 -97h-750zM344 152h578q124 0 199 63t75 195q0 127 -77 191.5t-197 64.5h-578v-514zM1499 0v1229h172v-1229h-172z" />
<glyph unicode="&#x42c;" horiz-adv-x="1476" d="M172 0v1229h172v-412h578q96 0 175.5 -23.5t141 -71.5t95.5 -127.5t34 -184.5q0 -208 -124.5 -313t-321.5 -97h-750zM344 152h578q124 0 199 63t75 195q0 127 -77 191.5t-197 64.5h-578v-514z" />
<glyph unicode="&#x42d;" horiz-adv-x="1374" d="M82 84l47 149q217 -106 459 -106q207 0 343.5 102.5t160.5 309.5h-820v151h820q-24 207 -160.5 309.5t-343.5 102.5q-240 0 -459 -107l-47 150q234 108 506 108q115 0 215.5 -22.5t186.5 -72t147.5 -123.5t96 -181t34.5 -240t-34.5 -240t-96 -181t-147.5 -123.5 t-186.5 -72t-215.5 -22.5q-270 0 -506 109z" />
<glyph unicode="&#x42e;" horiz-adv-x="1916" d="M172 0v1229h172v-539h229q10 145 63.5 255.5t139 176.5t190 98.5t224.5 32.5q102 0 192 -22.5t169 -72.5t135.5 -123t89 -181t32.5 -240t-32.5 -240t-89 -181t-135.5 -123t-169 -72.5t-192 -22.5q-120 0 -224.5 33t-190 99t-139 176.5t-63.5 255.5h-229v-539h-172z M743 614q0 -126 35 -221.5t97.5 -152.5t141.5 -85t173 -28t173 28t141 85t97 152.5t35 221.5t-35 221.5t-97 153t-141 85.5t-173 28t-173 -28t-141.5 -85.5t-97.5 -153t-35 -221.5z" />
<glyph unicode="&#x42f;" horiz-adv-x="1458" d="M131 846q0 98 34.5 173t96 120t141 67.5t175.5 22.5h749v-1229h-172v463h-424l-385 -463h-213l385 463q-174 8 -280.5 105.5t-106.5 277.5zM303 846q0 -117 77 -174.5t198 -57.5h577v463h-577q-123 0 -199 -57t-76 -174z" />
<glyph unicode="&#x430;" horiz-adv-x="1257" d="M104 279q0 70 28 121.5t70 81t103.5 47t117 23t122.5 5.5h430q-10 161 -98 231t-259 70q-230 0 -399 -76l-53 123q208 92 457 92q505 0 505 -489v-232q0 -154 52 -276h-148q-28 63 -39 176l13 70l-2 2q-50 -137 -174 -205t-300 -68q-189 0 -307.5 77.5t-118.5 226.5z M256 270q0 -155 303 -155q195 0 297 72t119 231h-428q-56 0 -99.5 -5t-91 -19t-74 -45.5t-26.5 -78.5z" />
<glyph unicode="&#x431;" horiz-adv-x="1255" d="M125 487v349q0 108 27.5 195t75.5 145.5t115.5 97.5t144.5 56.5t165 17.5q222 0 426 106v-145q-210 -101 -426 -101q-178 0 -277 -91t-100 -275q140 155 377 155q90 0 167.5 -18t144.5 -58t114 -99t74 -144t27 -191q0 -132 -41.5 -232t-115 -160t-166.5 -90t-204 -30 q-114 0 -207.5 29.5t-166.5 90t-113.5 160.5t-40.5 232zM276 487q0 -97 29.5 -170.5t82 -116.5t119 -64t146.5 -21t146.5 21t118.5 64t81 116t29 171q0 191 -104.5 285t-270.5 94q-237 0 -377 -180v-199z" />
<glyph unicode="&#x432;" horiz-adv-x="1245" d="M150 0v973h624q143 0 237.5 -66t94.5 -190q0 -168 -172 -223q98 -13 159.5 -71.5t61.5 -162.5q0 -128 -94.5 -194t-237.5 -66h-673zM301 139h522q181 0 181 125q0 70 -52.5 112t-128.5 42h-522v-279zM301 557h473q76 0 128 39t52 109q0 129 -180 129h-473v-277z" />
<glyph unicode="&#x433;" horiz-adv-x="970" d="M150 0v973h786v-139h-635v-834h-151z" />
<glyph unicode="&#x434;" horiz-adv-x="1239" d="M23 152h112q46 80 66.5 150t27.5 190l41 481h820v-821h127v-447h-152v295h-891v-295h-151v447zM293 152h645v669h-530l-27 -329q-7 -130 -25 -194t-63 -146z" />
<glyph unicode="&#x435;" horiz-adv-x="1253" d="M109 487q0 105 28 191t76.5 144.5t117.5 98.5t149 58t171 18q112 0 207 -28.5t171 -85t119.5 -152t43.5 -219.5q0 -50 -8 -94h-922q13 -106 71.5 -175.5t144.5 -98.5t200 -29q96 0 202 19.5t185 55.5l57 -122q-214 -93 -450 -93q-120 0 -220.5 29.5t-178 90t-121 160.5 t-43.5 232zM262 557h774q-13 104 -68 173t-134.5 98.5t-182.5 29.5q-105 0 -185.5 -29.5t-135.5 -98.5t-68 -173z" />
<glyph unicode="&#x436;" horiz-adv-x="1669" d="M35 0l438 487l-438 486h188l379 -420h162v420h151v-420h162l379 420h189l-439 -486l439 -487h-189l-379 422h-162v-422h-151v422h-162l-379 -422h-188z" />
<glyph unicode="&#x437;" horiz-adv-x="1083" d="M70 72l61 139q173 -84 395 -84q58 0 111.5 7.5t101 22.5t75.5 42.5t28 64.5q0 70 -93 111t-229 41h-125v151h111q135 0 222 39t87 107t-86.5 100.5t-212.5 32.5q-198 0 -371 -84l-61 139q213 96 424 96q89 0 169.5 -17t146 -49.5t104.5 -86t39 -121.5q0 -194 -310 -231 q156 -13 246 -72t90 -164q0 -71 -41.5 -126.5t-110.5 -88.5t-151 -49.5t-170 -16.5q-235 0 -450 97z" />
<glyph unicode="&#x438;" horiz-adv-x="1292" d="M150 0v973h151v-780l690 780h152v-973h-152v778l-690 -778h-151z" />
<glyph unicode="&#x439;" horiz-adv-x="1292" d="M150 0v973h151v-780l690 780h152v-973h-152v778l-690 -778h-151zM356 1352h111q0 -61 54 -93t124 -32q71 0 125.5 32t54.5 93h111q0 -73 -45 -123.5t-108.5 -71t-137.5 -20.5q-73 0 -136 20.5t-108 71t-45 123.5z" />
<glyph unicode="&#x43a;" horiz-adv-x="1148" d="M150 0v973h151v-420h244l379 420h188l-438 -486l438 -487h-188l-379 422h-244v-422h-151z" />
<glyph unicode="&#x43b;" horiz-adv-x="1230" d="M35 4l22 127q23 -6 64 -6q64 0 81.5 47t35.5 240l43 561h800v-973h-151v834h-508l-33 -422q-14 -171 -42 -258.5t-80 -123.5t-148 -36q-50 0 -84 10z" />
<glyph unicode="&#x43c;" horiz-adv-x="1650" d="M150 0v973h159l516 -826l518 826h158v-973h-151v729l-455 -729h-139l-455 729v-729h-151z" />
<glyph unicode="&#x43d;" horiz-adv-x="1327" d="M150 0v973h151v-416h725v416h152v-973h-152v418h-725v-418h-151z" />
<glyph unicode="&#x43e;" horiz-adv-x="1255" d="M76 487q0 105 28 190.5t78 144.5t120 99t151.5 58t175.5 18q93 0 174.5 -18t151 -58t119.5 -98.5t78 -144.5t28 -191q0 -132 -42.5 -232t-119 -160.5t-174.5 -90t-215 -29.5q-94 0 -175.5 18t-151.5 58t-120 99t-78 145t-28 192zM227 487q0 -97 31.5 -170.5t88 -116.5 t127 -64t155.5 -21q86 0 156.5 21t125.5 64t86 116t31 171q0 96 -31 169t-86.5 116t-126 64.5t-155.5 21.5t-156.5 -21.5t-127 -64.5t-87 -116t-31.5 -169z" />
<glyph unicode="&#x43f;" horiz-adv-x="1277" d="M150 0v973h978v-973h-151v834h-676v-834h-151z" />
<glyph unicode="&#x440;" d="M98 973h148q28 -63 39 -176l-13 -70l2 -2q48 136 165 204t276 68q103 0 190 -29.5t155 -89t106 -159t38 -230.5q0 -134 -41 -235t-114 -161t-167 -89t-208 -29q-257 0 -428 134l55 -72v-504h-151v1163q0 155 -52 277zM301 236q69 -60 166.5 -90.5t202.5 -30.5 q176 0 279.5 90.5t103.5 279.5q0 190 -104 281.5t-271 91.5q-80 0 -146.5 -21t-119 -64.5t-82 -117t-29.5 -170.5v-249z" />
<glyph unicode="&#x441;" horiz-adv-x="1126" d="M78 487q0 106 29 191t80.5 144t124 99t157 58t182.5 18q207 0 406 -92l-58 -123q-161 76 -348 76q-88 0 -162.5 -21.5t-133.5 -64.5t-92.5 -116t-33.5 -169t33.5 -168.5t92.5 -116t133 -64.5t163 -21q187 0 348 76l58 -125q-201 -93 -406 -93q-123 0 -224.5 29.5t-181 90 t-123.5 160.5t-44 232z" />
<glyph unicode="&#x442;" horiz-adv-x="1015" d="M25 834v139h966v-139h-399v-834h-152v834h-415z" />
<glyph unicode="&#x443;" horiz-adv-x="1259" d="M47 973h170l416 -830l405 830h162l-633 -1290q-39 -80 -98.5 -115t-165.5 -35q-102 0 -168 37l41 127q67 -33 139 -33q51 0 79.5 23.5t56.5 81.5l102 213z" />
<glyph unicode="&#x444;" horiz-adv-x="1710" d="M82 487q0 268 160 387t538 123v426l152 11v-437q377 -4 536.5 -123t159.5 -387q0 -269 -159.5 -387.5t-536.5 -122.5v-444h-152v444q-379 4 -538.5 122.5t-159.5 387.5zM233 487q0 -134 51.5 -212t170.5 -116.5t325 -41.5v741q-205 -3 -324.5 -42.5t-171 -118 t-51.5 -210.5zM932 117q205 3 323.5 41.5t170 116.5t51.5 212q0 132 -51.5 210.5t-170.5 118t-323 42.5v-741z" />
<glyph unicode="&#x445;" horiz-adv-x="1038" d="M25 0l403 485l-403 488h180l313 -379l316 379h180l-406 -488l406 -485h-180l-316 377l-313 -377h-180z" />
<glyph unicode="&#x446;" horiz-adv-x="1275" d="M150 0v973h151v-834h676v834h151v-834h127v-434h-131v295h-974z" />
<glyph unicode="&#x447;" horiz-adv-x="1208" d="M82 805v168h151v-168q0 -367 330 -367q142 0 256 70q49 28 88 70v395h152v-973h-152v438q-28 -37 -80 -69q-110 -70 -258 -70q-248 0 -367.5 123.5t-119.5 382.5z" />
<glyph unicode="&#x448;" horiz-adv-x="1757" d="M150 0v973h151v-834h502v834h151v-834h502v834h152v-973h-1458z" />
<glyph unicode="&#x449;" horiz-adv-x="1757" d="M150 0v973h151v-834h502v834h151v-834h502v834h152v-834h127v-434h-131v295h-1454z" />
<glyph unicode="&#x44a;" horiz-adv-x="1306" d="M0 834v139h406v-359h475q155 0 249.5 -75.5t94.5 -231.5q0 -155 -96.5 -231t-247.5 -76h-627v834h-254zM406 139h475q85 0 138.5 41t53.5 127t-53.5 127t-138.5 41h-475v-336z" />
<glyph unicode="&#x44b;" horiz-adv-x="1525" d="M152 0v973h151v-359h475q155 0 249.5 -75.5t94.5 -231.5q0 -155 -96.5 -231t-247.5 -76h-626zM303 139h475q85 0 139 41t54 127t-54 127t-139 41h-475v-336zM1223 0v973h151v-973h-151z" />
<glyph unicode="&#x44c;" horiz-adv-x="1202" d="M152 0v973h151v-359h475q155 0 249.5 -75.5t94.5 -231.5q0 -155 -96.5 -231t-247.5 -76h-626zM303 139h475q85 0 139 41t54 127t-54 127t-139 41h-475v-336z" />
<glyph unicode="&#x44d;" horiz-adv-x="1126" d="M78 68l41 125q173 -84 364 -84q166 0 280 75.5t138 227.5h-665v151h665q-24 152 -138 227.5t-280 75.5q-191 0 -364 -84l-41 123q199 92 405 92q123 0 225 -29.5t181 -89.5t123.5 -160t44.5 -231q0 -132 -44.5 -232t-123.5 -160.5t-181 -90t-225 -29.5q-204 0 -405 93z " />
<glyph unicode="&#x44e;" horiz-adv-x="1599" d="M150 0v973h151v-416h162q17 223 153.5 331.5t356.5 108.5q236 0 373 -125.5t137 -384.5q0 -133 -37 -232.5t-106 -160t-160.5 -90t-206.5 -29.5q-107 0 -194 26t-155 78.5t-109.5 138.5t-51.5 200h-162v-418h-151zM612 487q0 -192 96.5 -282t264.5 -90q167 0 262.5 90 t95.5 282q0 190 -95.5 280.5t-262.5 90.5t-264 -90.5t-97 -280.5z" />
<glyph unicode="&#x44f;" horiz-adv-x="1169" d="M49 0l311 346q-141 8 -226 84t-85 223q0 157 98 237.5t248 80.5h625v-971h-152v336h-315l-301 -336h-203zM201 653q0 -91 54 -134.5t140 -43.5h473v356h-473q-86 0 -140 -43.5t-54 -134.5z" />
<glyph unicode="&#x450;" horiz-adv-x="1253" d="M109 487q0 105 28 191t76.5 144.5t117.5 98.5t149 58t171 18q112 0 207 -28.5t171 -85t119.5 -152t43.5 -219.5q0 -50 -8 -94h-922q13 -106 71.5 -175.5t144.5 -98.5t200 -29q96 0 202 19.5t185 55.5l57 -122q-214 -93 -450 -93q-120 0 -220.5 29.5t-178 90t-121 160.5 t-43.5 232zM262 557h774q-13 104 -68 173t-134.5 98.5t-182.5 29.5q-105 0 -185.5 -29.5t-135.5 -98.5t-68 -173zM338 1311l111 82l348 -191l-49 -72z" />
<glyph unicode="&#x451;" horiz-adv-x="1253" d="M109 487q0 105 28 191t76.5 144.5t117.5 98.5t149 58t171 18q112 0 207 -28.5t171 -85t119.5 -152t43.5 -219.5q0 -50 -8 -94h-922q13 -106 71.5 -175.5t144.5 -98.5t200 -29q96 0 202 19.5t185 55.5l57 -122q-214 -93 -450 -93q-120 0 -220.5 29.5t-178 90t-121 160.5 t-43.5 232zM262 557h774q-13 104 -68 173t-134.5 98.5t-182.5 29.5q-105 0 -185.5 -29.5t-135.5 -98.5t-68 -173zM365 1270q0 35 25.5 60.5t60.5 25.5t60.5 -25.5t25.5 -60.5t-25.5 -60.5t-60.5 -25.5t-60.5 25.5t-25.5 60.5zM758 1270q0 35 25.5 60.5t60.5 25.5t60.5 -25.5 t25.5 -60.5t-25.5 -60.5t-60.5 -25.5t-60.5 25.5t-25.5 60.5z" />
<glyph unicode="&#x452;" horiz-adv-x="1382" d="M61 1141v131h170v141l152 21v-162h350v-131h-350v-256q0 -24 -5 -50t-13 -57.5t-11 -50.5l2 -2q48 136 165 204t272 68q95 0 173.5 -27t139 -82t94 -146.5t33.5 -211.5v-530q0 -193 -68.5 -271.5t-236.5 -78.5q-118 0 -213 37l41 127q87 -33 178 -33q85 0 116 47t31 172 v524q0 172 -88.5 253t-238.5 81q-77 0 -142.5 -21t-117.5 -64.5t-81.5 -117t-29.5 -170.5v-485h-152v1141h-170z" />
<glyph unicode="&#x453;" horiz-adv-x="970" d="M150 0v973h786v-139h-635v-834h-151zM332 1202l348 191l111 -82l-410 -181z" />
<glyph unicode="&#x454;" horiz-adv-x="1126" d="M78 487q0 106 29 191t80.5 144t124 99t157 58t182.5 18q207 0 406 -92l-41 -123q-173 84 -365 84q-166 0 -280 -75.5t-138 -227.5h666v-151h-666q24 -152 138 -227.5t280 -75.5q192 0 365 84l41 -125q-201 -93 -406 -93q-123 0 -224.5 29.5t-181 90t-123.5 160.5t-44 232 z" />
<glyph unicode="&#x455;" horiz-adv-x="1046" d="M51 68l53 127q86 -38 198.5 -59t217.5 -21q61 0 115.5 8.5t100.5 25t73 46t27 67.5q0 30 -18.5 54.5t-46.5 40.5t-75 29.5t-89 22t-103 17.5q-51 9 -76 13.5t-71 14t-70 17.5t-61 21t-57 27t-44.5 34t-36.5 42.5t-20.5 52t-8.5 63.5q0 75 37.5 132t102.5 89.5t143 48.5 t168 16q219 0 440 -92l-53 -127q-184 80 -387 80q-82 0 -146 -13t-108.5 -46.5t-44.5 -85.5q0 -25 10.5 -45.5t33.5 -35.5t46.5 -25.5t63 -19.5t69.5 -14t78 -12q86 -14 145.5 -26.5t126.5 -36.5t108 -53.5t68 -76.5t27 -106q0 -75 -40.5 -132.5t-109 -90t-149 -48.5 t-170.5 -16q-115 0 -239 25t-228 68z" />
<glyph unicode="&#x456;" horiz-adv-x="430" d="M129 1270q0 36 25 61t61 25t61 -26.5t25 -59.5q0 -38 -25 -62t-61 -24q-35 0 -60.5 25.5t-25.5 60.5zM139 0v973h152v-973h-152z" />
<glyph unicode="&#x457;" horiz-adv-x="471" d="M-47 1270q0 35 25.5 60.5t60.5 25.5t60.5 -25.5t25.5 -60.5t-25.5 -60.5t-60.5 -25.5t-60.5 25.5t-25.5 60.5zM160 0v973h151v-973h-151zM346 1270q0 35 25.5 60.5t60.5 25.5t60.5 -25.5t25.5 -60.5t-25.5 -60.5t-60.5 -25.5t-60.5 25.5t-25.5 60.5z" />
<glyph unicode="&#x458;" horiz-adv-x="430" d="M-63 -451l36 127q32 -12 72 -12q54 0 74 29.5t20 107.5v1172h152v-1172q0 -146 -54.5 -207t-183.5 -61q-60 0 -116 16zM129 1270q0 36 25 61t61 25t61 -25t25 -61q0 -35 -25.5 -60.5t-60.5 -25.5t-60.5 25.5t-25.5 60.5z" />
<glyph unicode="&#x459;" horiz-adv-x="1847" d="M35 4l22 127q23 -6 64 -6q64 0 81.5 47t35.5 240l43 561h735v-359h403q155 0 249.5 -75.5t94.5 -231.5q0 -155 -96.5 -231t-247.5 -76h-555v834h-442l-33 -422q-14 -171 -42 -258.5t-80 -123.5t-148 -36q-50 0 -84 10zM1016 139h403q85 0 139 41t54 127t-54 127t-139 41 h-403v-336z" />
<glyph unicode="&#x45a;" horiz-adv-x="1937" d="M150 0v973h151v-416h653v416h152v-359h403q155 0 249.5 -75.5t94.5 -231.5q0 -155 -96.5 -231t-247.5 -76h-555v418h-653v-418h-151zM1106 139h403q85 0 139 41t54 127t-54 127t-139 41h-403v-336z" />
<glyph unicode="&#x45b;" horiz-adv-x="1341" d="M41 1141v131h170v141l151 21v-162h351v-131h-351v-256q0 -24 -4.5 -50t-12.5 -58t-11 -50l2 -2q48 136 164.5 204t271.5 68q95 0 173.5 -27t139 -82t94 -146.5t33.5 -211.5v-530h-151v524q0 171 -89 252.5t-239 81.5q-77 0 -142.5 -21t-117.5 -64.5t-81.5 -117 t-29.5 -170.5v-485h-151v1141h-170z" />
<glyph unicode="&#x45c;" horiz-adv-x="1148" d="M150 0v973h151v-420h244l379 420h188l-438 -486l438 -487h-188l-379 422h-244v-422h-151zM414 1202l348 191l110 -82l-409 -181z" />
<glyph unicode="&#x45d;" horiz-adv-x="1292" d="M150 0v973h151v-780l690 780h152v-973h-152v778l-690 -778h-151zM377 1311l110 82l349 -191l-50 -72z" />
<glyph unicode="&#x45e;" horiz-adv-x="1259" d="M47 973h170l416 -830l405 830h162l-633 -1290q-39 -80 -98.5 -115t-165.5 -35q-102 0 -168 37l41 127q67 -33 139 -33q51 0 79.5 23.5t56.5 81.5l102 213zM360 1352h111q0 -61 54 -93t124 -32q71 0 125.5 32t54.5 93h111q0 -73 -45 -123.5t-108.5 -71t-137.5 -20.5 q-73 0 -136 20.5t-108 71t-45 123.5z" />
<glyph unicode="&#x45f;" horiz-adv-x="1277" d="M150 0v973h151v-834h676v834h151v-973h-413v-354h-152v354h-413z" />
<glyph unicode="&#x490;" horiz-adv-x="1245" d="M131 0v1229h954v295h152v-447h-934v-1077h-172z" />
<glyph unicode="&#x491;" horiz-adv-x="970" d="M150 0v973h655v295h131v-434h-635v-834h-151z" />
<glyph unicode="&#x2000;" horiz-adv-x="824" />
<glyph unicode="&#x2001;" horiz-adv-x="1649" />
<glyph unicode="&#x2002;" horiz-adv-x="824" />
<glyph unicode="&#x2003;" horiz-adv-x="1649" />
<glyph unicode="&#x2004;" horiz-adv-x="549" />
<glyph unicode="&#x2005;" horiz-adv-x="412" />
<glyph unicode="&#x2006;" horiz-adv-x="274" />
<glyph unicode="&#x2007;" horiz-adv-x="274" />
<glyph unicode="&#x2008;" horiz-adv-x="206" />
<glyph unicode="&#x2009;" horiz-adv-x="329" />
<glyph unicode="&#x200a;" horiz-adv-x="91" />
<glyph unicode="&#x2010;" horiz-adv-x="958" d="M143 549v131h672v-131h-672z" />
<glyph unicode="&#x2011;" horiz-adv-x="958" d="M143 549v131h672v-131h-672z" />
<glyph unicode="&#x2012;" horiz-adv-x="958" d="M143 549v131h672v-131h-672z" />
<glyph unicode="&#x2013;" horiz-adv-x="1204" d="M143 549v131h918v-131h-918z" />
<glyph unicode="&#x2014;" horiz-adv-x="1449" d="M143 549v131h1164v-131h-1164z" />
<glyph unicode="&#x2018;" horiz-adv-x="430" d="M90 944q0 147 154 393l69 -34q-65 -113 -106 -250h22q44 0 81.5 -37.5t37.5 -91.5q0 -56 -37 -92.5t-92 -36.5q-56 0 -92.5 37t-36.5 112z" />
<glyph unicode="&#x2019;" horiz-adv-x="389" d="M70 1208q0 56 37 92.5t92 36.5q56 0 92.5 -37t36.5 -112q0 -147 -154 -393l-70 34q52 91 107 250h-23q-44 0 -81 37.5t-37 91.5z" />
<glyph unicode="&#x201a;" horiz-adv-x="430" d="M63 102q0 55 37 92t93 37t92.5 -37t36.5 -112q0 -147 -154 -393l-70 35q53 93 107 249h-23q-44 0 -81.5 37.5t-37.5 91.5z" />
<glyph unicode="&#x201c;" horiz-adv-x="757" d="M82 944q0 147 154 393l69 -34q-65 -113 -106 -250h22q44 0 81.5 -37.5t37.5 -91.5q0 -56 -37 -92.5t-92 -36.5q-56 0 -92.5 37t-36.5 112zM418 944q0 148 153 393l70 -34q-65 -113 -106 -250h22q44 0 81.5 -37.5t37.5 -91.5q0 -56 -37 -92.5t-92 -36.5q-56 0 -92.5 37 t-36.5 112z" />
<glyph unicode="&#x201d;" horiz-adv-x="755" d="M63 1208q0 55 37 92t93 37t92.5 -37t36.5 -112q0 -147 -154 -393l-70 34q52 91 107 250h-23q-44 0 -81.5 37.5t-37.5 91.5zM397 1208q0 56 36.5 92.5t92.5 36.5t92.5 -37t36.5 -112q0 -148 -153 -393l-70 34q52 91 107 250h-23q-44 0 -81.5 37.5t-37.5 91.5z" />
<glyph unicode="&#x201e;" horiz-adv-x="755" d="M70 102q0 56 37 92.5t92 36.5q56 0 92.5 -37t36.5 -112q0 -147 -154 -393l-70 35q53 93 107 249h-23q-44 0 -81 37.5t-37 91.5zM397 102q0 56 36.5 92.5t92.5 36.5t92.5 -37t36.5 -112q0 -148 -153 -393l-70 35q53 93 107 249h-23q-44 0 -81.5 37.5t-37.5 91.5z" />
<glyph unicode="&#x2026;" horiz-adv-x="1155" d="M63 102q0 55 37 92t93 37q55 0 92 -36.5t37 -92.5t-37 -92.5t-92 -36.5q-56 0 -93 37t-37 92zM449 102q0 56 36.5 92.5t92.5 36.5t92.5 -36.5t36.5 -92.5t-36.5 -92.5t-92.5 -36.5t-92.5 36.5t-36.5 92.5zM834 102q0 56 37 92.5t92 36.5t92 -36.5t37 -92.5t-37 -92.5 t-92 -36.5t-92 36.5t-37 92.5z" />
<glyph unicode="&#x202f;" horiz-adv-x="329" />
<glyph unicode="&#x2039;" horiz-adv-x="700" d="M41 616l473 474l117 -101l-375 -373l373 -372l-115 -103z" />
<glyph unicode="&#x203a;" horiz-adv-x="700" d="M74 242l375 374l-375 373l116 101l474 -474l-478 -479z" />
<glyph unicode="&#x205f;" horiz-adv-x="412" />
<glyph unicode="&#x20ac;" horiz-adv-x="1556" d="M80 401v131h168q-4 54 -4 82t4 82h-168v131h190q59 215 233 320.5t421 105.5q272 0 506 -108l-50 -150q-219 107 -456 107q-167 0 -292 -69t-179 -206h565v-131h-598q-4 -54 -4 -82q0 -32 4 -82h598v-131h-565q52 -139 177 -206.5t294 -67.5q239 0 456 106l50 -149 q-236 -109 -506 -109q-247 0 -421 105.5t-233 320.5h-190z" />
<glyph unicode="&#x2122;" horiz-adv-x="2076" d="M33 1206v121h831v-121h-348v-616h-121v616h-362zM1001 590v737h109l377 -588l377 588h112v-737h-121v489l-319 -489h-94l-320 491v-491h-121z" />
<glyph unicode="&#x25fc;" horiz-adv-x="972" d="M0 0v973h973v-973h-973z" />
</font>
</defs>
</svg>
